<svg data-v-423bf9ae="" xmlns="http://www.w3.org/2000/svg" viewBox="0 0 286 90" class="iconLeftSlogan"><!----><!----><!----><g data-v-423bf9ae="" id="d803b918-ce33-4592-8aa3-02269f9a3b98" fill="black" transform="matrix(3.264417655779422,0,0,3.264417655779422,109.11860935265317,-2.4156688579901058)"><path d="M7.32 7.81L7.32 7.81Q8.20 8.58 8.20 9.39L8.20 9.39L8.20 9.39Q8.20 9.93 7.84 10.46L7.84 10.46L7.84 10.46Q6.55 12.31 4.82 12.74L4.82 12.74L4.82 12.74Q4.37 12.85 3.81 12.85L3.81 12.85L3.81 12.85Q2.49 12.85 1.29 12.19L1.29 12.19L1.29 12.19Q0.71 11.89 0.49 11.40L0.49 11.40L0.49 11.40Q0.27 10.91 0.27 10.23L0.27 10.23L0.27 10.23Q0.27 9.76 0.38 8.86L0.38 8.86L0.38 8.86Q0.42 8.62 0.77 8.62L0.77 8.62L0.77 8.62Q1.16 8.62 1.57 8.88L1.57 8.88L1.57 8.88Q1.97 9.13 1.93 9.44L1.93 9.44L1.93 9.44Q1.92 9.55 1.86 9.93L1.86 9.93L1.86 9.93Q1.81 10.32 1.81 10.64L1.81 10.64L1.81 10.64Q1.81 11.37 2.16 11.62L2.16 11.62L2.16 11.62Q2.51 11.87 3.07 11.87L3.07 11.87L3.07 11.87Q3.63 11.87 4.23 11.63L4.23 11.63L4.23 11.63Q4.69 11.45 5.26 11.03L5.26 11.03L5.26 11.03Q5.82 10.61 6.22 10.08L6.22 10.08L6.22 10.08Q6.62 9.55 6.62 9.04L6.62 9.04L6.62 9.04Q6.62 8.64 6.34 8.30L6.34 8.30L6.34 8.30Q6.06 7.98 5.55 7.69L5.55 7.69L5.55 7.69Q5.04 7.39 4.20 7L4.20 7L4.20 7Q3.16 6.51 2.54 6.14L2.54 6.14L2.54 6.14Q1.92 5.77 1.47 5.26L1.47 5.26L1.47 5.26Q1.02 4.75 1.02 4.10L1.02 4.10L1.02 4.10Q1.02 3.81 1.09 3.58L1.09 3.58L1.09 3.58Q1.43 2.32 2.75 1.77L2.75 1.77L2.75 1.77Q4.07 1.22 5.61 1.22L5.61 1.22L5.61 1.22Q6.29 1.22 6.79 1.30L6.79 1.30L6.79 1.30Q7.29 1.39 7.63 1.67L7.63 1.67L7.63 1.67Q8.01 1.97 8.01 2.53L8.01 2.53L8.01 2.53Q8.01 2.87 7.90 3.20L7.90 3.20L7.90 3.20Q7.80 3.53 7.59 4.09L7.59 4.09L7.59 4.09Q7.43 4.47 7.41 4.55L7.41 4.55L7.41 4.55Q7.32 4.79 6.94 4.79L6.94 4.79L6.94 4.79Q6.57 4.79 6.20 4.58L6.20 4.58L6.20 4.58Q5.84 4.37 5.84 4.10L5.84 4.10L5.84 4.10Q5.84 4.03 5.85 3.99L5.85 3.99L6.06 3.39L6.06 3.39Q6.20 3.00 6.26 2.80L6.26 2.80L6.36 2.21L6.36 2.21L6.36 2.21Q4.59 2.18 3.54 2.93L3.54 2.93L3.54 2.93Q3.12 3.21 2.89 3.58L2.89 3.58L2.89 3.58Q2.66 3.95 2.66 4.33L2.66 4.33L2.66 4.33Q2.66 4.98 3.32 5.46L3.32 5.46L3.32 5.46Q3.79 5.80 4.38 6.09L4.38 6.09L4.38 6.09Q4.96 6.38 5.08 6.45L5.08 6.45L5.08 6.45Q5.89 6.86 6.39 7.14L6.39 7.14L6.39 7.14Q6.89 7.42 7.32 7.81L7.32 7.81ZM14.52 3.99L14.52 3.99Q14.74 4.06 14.73 4.28L14.73 4.28L14.73 4.28Q14.34 8.04 13.58 12.11L13.58 12.11L13.58 12.11Q13.52 12.38 13.19 12.56L13.19 12.56L13.19 12.56Q12.85 12.74 12.52 12.74L12.52 12.74L12.52 12.74Q12.31 12.74 12.18 12.65L12.18 12.65L12.18 12.65Q12.05 12.56 12.10 12.39L12.10 12.39L12.10 12.39Q12.43 10.93 12.66 9.41L12.66 9.41L12.66 9.41Q12.88 7.88 13.09 5.91L13.09 5.91L13.09 5.91Q11.94 6.97 10.79 8.23L10.79 8.23L10.02 12.49L10.02 12.49Q9.97 12.75 9.62 12.95L9.62 12.95L9.62 12.95Q9.27 13.15 8.92 13.15L8.92 13.15L8.92 13.15Q8.71 13.15 8.60 13.05L8.60 13.05L8.60 13.05Q8.48 12.96 8.51 12.78L8.51 12.78L9.20 8.93L9.20 8.93Q9.03 8.89 9.03 8.74L9.03 8.74L9.03 8.74Q9.03 8.62 9.16 8.46L9.16 8.46L9.32 8.23L10.58 1.39L10.58 1.39Q10.63 1.13 10.98 0.95L10.98 0.95L10.98 0.95Q11.33 0.77 11.66 0.77L11.66 0.77L11.66 0.77Q11.86 0.77 11.97 0.85L11.97 0.85L11.97 0.85Q12.08 0.94 12.05 1.09L12.05 1.09L11.16 6.16L11.16 6.16Q12.19 5.12 13.47 4.19L13.47 4.19L13.47 4.19Q13.87 3.91 14.22 3.91L14.22 3.91L14.22 3.91Q14.39 3.91 14.52 3.99L14.52 3.99L14.52 3.99ZM20.90 7.71L20.90 7.71Q20.90 6.23 19.17 5.38L19.17 5.38L19.17 5.38Q18.73 5.74 18.30 6.34L18.30 6.34L18.30 6.34Q17.77 7.11 17.42 8.06L17.42 8.06L17.42 8.06Q17.28 8.44 17.15 9.09L17.15 9.09L17.15 9.09Q17.02 9.74 17.02 10.30L17.02 10.30L17.02 10.30Q17.02 10.88 17.19 11.22L17.19 11.22L17.19 11.22Q17.35 11.56 17.71 11.56L17.71 11.56L17.71 11.56Q18.00 11.56 18.40 11.33L18.40 11.33L18.40 11.33Q19.47 10.70 20.19 9.76L20.19 9.76L20.19 9.76Q20.90 8.82 20.90 7.71L20.90 7.71ZM21.29 5.18L21.29 5.18Q21.80 5.66 22.07 6.26L22.07 6.26L22.07 6.26Q22.34 6.86 22.34 7.53L22.34 7.53L22.34 7.53Q22.34 8.50 21.78 9.49L21.78 9.49L21.78 9.49Q21.41 10.16 20.68 10.91L20.68 10.91L20.68 10.91Q19.95 11.65 19.06 12.16L19.06 12.16L19.06 12.16Q18.17 12.67 17.36 12.67L17.36 12.67L17.36 12.67Q16.86 12.67 16.41 12.45L16.41 12.45L16.41 12.45Q15.46 11.93 15.46 10.58L15.46 10.58L15.46 10.58Q15.46 9.62 15.89 8.46L15.89 8.46L15.89 8.46Q16.32 7.31 16.81 6.51L16.81 6.51L16.81 6.51Q18.00 4.62 19.32 4.13L19.32 4.13L19.32 4.13Q19.68 3.99 20.10 3.99L20.10 3.99L20.10 3.99Q20.59 3.99 20.93 4.23L20.93 4.23L20.93 4.23Q21.27 4.48 21.32 5.00L21.32 5.00L21.32 5.05L21.32 5.05Q21.32 5.10 21.29 5.18L21.29 5.18ZM26.75 9.03L26.75 9.03Q26.81 8.79 26.81 8.47L26.81 8.47L26.81 8.47Q26.81 7.35 25.97 6.29L25.97 6.29L25.97 6.29Q25.49 5.67 24.96 5.29L24.96 5.29L24.96 5.29Q24.54 7.91 24.30 9.52L24.30 9.52L24.30 9.52Q24.19 10.18 24.00 11.49L24.00 11.49L24.00 11.49Q24.42 11.69 24.77 11.69L24.77 11.69L24.77 11.69Q25.35 11.69 25.83 11.12L25.83 11.12L25.83 11.12Q26.18 10.70 26.42 10.15L26.42 10.15L26.42 10.15Q26.66 9.60 26.75 9.03L26.75 9.03ZM25.12 3.93L25.12 3.93Q25.98 4.23 26.68 4.92L26.68 4.92L26.68 4.92Q27.38 5.61 27.78 6.53L27.78 6.53L27.78 6.53Q28.18 7.45 28.18 8.36L28.18 8.36L28.18 8.36Q28.18 8.85 28.06 9.31L28.06 9.31L28.06 9.31Q27.79 10.28 27.25 11.04L27.25 11.04L27.25 11.04Q26.71 11.80 25.96 12.24L25.96 12.24L25.96 12.24Q25.21 12.68 24.36 12.68L24.36 12.68L24.36 12.68Q24.09 12.68 23.81 12.64L23.81 12.64L23.81 12.64Q23.25 16.23 22.81 18.49L22.81 18.49L22.81 18.49Q22.75 18.76 22.41 18.94L22.41 18.94L22.41 18.94Q22.08 19.12 21.73 19.12L21.73 19.12L21.73 19.12Q21.49 19.12 21.36 19.03L21.36 19.03L21.36 19.03Q21.22 18.93 21.27 18.73L21.27 18.73L21.27 18.73Q21.95 15.26 22.47 12.11L22.47 12.11L22.44 12.10L22.44 12.10Q22.26 11.97 22.26 11.82L22.26 11.82L22.26 11.82Q22.26 11.58 22.60 11.37L22.60 11.37L22.60 11.37Q23.04 8.78 23.60 4.72L23.60 4.72L23.42 4.73L23.27 4.75L23.27 4.75Q23.03 4.75 22.92 4.66L22.92 4.66L22.92 4.66Q22.81 4.58 22.81 4.45L22.81 4.45L22.81 4.45Q22.81 4.24 23.02 4.05L23.02 4.05L23.02 4.05Q23.23 3.85 23.53 3.79L23.53 3.79L23.53 3.79Q23.79 3.75 24.04 3.75L24.04 3.75L24.04 3.75Q24.22 3.75 24.53 3.78L24.53 3.78L24.53 3.78Q24.98 3.72 25.12 3.93L25.12 3.93ZM34.19 3.99L34.19 3.99Q34.41 4.06 34.40 4.28L34.40 4.28L34.40 4.28Q34.01 8.04 33.25 12.11L33.25 12.11L33.25 12.11Q33.19 12.38 32.86 12.56L32.86 12.56L32.86 12.56Q32.52 12.74 32.19 12.74L32.19 12.74L32.19 12.74Q31.98 12.74 31.85 12.65L31.85 12.65L31.85 12.65Q31.72 12.56 31.77 12.39L31.77 12.39L31.77 12.39Q32.10 10.93 32.33 9.41L32.33 9.41L32.33 9.41Q32.55 7.88 32.76 5.91L32.76 5.91L32.76 5.91Q31.61 6.97 30.46 8.23L30.46 8.23L29.69 12.49L29.69 12.49Q29.64 12.75 29.29 12.95L29.29 12.95L29.29 12.95Q28.94 13.15 28.59 13.15L28.59 13.15L28.59 13.15Q28.38 13.15 28.27 13.05L28.27 13.05L28.27 13.05Q28.15 12.96 28.18 12.78L28.18 12.78L28.87 8.93L28.87 8.93Q28.70 8.89 28.70 8.74L28.70 8.74L28.70 8.74Q28.70 8.62 28.83 8.46L28.83 8.46L28.99 8.23L30.25 1.39L30.25 1.39Q30.30 1.13 30.65 0.95L30.65 0.95L30.65 0.95Q31.00 0.77 31.33 0.77L31.33 0.77L31.33 0.77Q31.53 0.77 31.64 0.85L31.64 0.85L31.64 0.85Q31.75 0.94 31.72 1.09L31.72 1.09L30.83 6.16L30.83 6.16Q31.86 5.12 33.14 4.19L33.14 4.19L33.14 4.19Q33.54 3.91 33.89 3.91L33.89 3.91L33.89 3.91Q34.06 3.91 34.19 3.99L34.19 3.99L34.19 3.99ZM40.57 7.71L40.57 7.71Q40.57 6.23 38.84 5.38L38.84 5.38L38.84 5.38Q38.40 5.74 37.97 6.34L37.97 6.34L37.97 6.34Q37.44 7.11 37.09 8.06L37.09 8.06L37.09 8.06Q36.95 8.44 36.82 9.09L36.82 9.09L36.82 9.09Q36.69 9.74 36.69 10.30L36.69 10.30L36.69 10.30Q36.69 10.88 36.86 11.22L36.86 11.22L36.86 11.22Q37.02 11.56 37.38 11.56L37.38 11.56L37.38 11.56Q37.67 11.56 38.07 11.33L38.07 11.33L38.07 11.33Q39.14 10.70 39.86 9.76L39.86 9.76L39.86 9.76Q40.57 8.82 40.57 7.71L40.57 7.71ZM40.96 5.18L40.96 5.18Q41.47 5.66 41.74 6.26L41.74 6.26L41.74 6.26Q42.01 6.86 42.01 7.53L42.01 7.53L42.01 7.53Q42.01 8.50 41.45 9.49L41.45 9.49L41.45 9.49Q41.08 10.16 40.35 10.91L40.35 10.91L40.35 10.91Q39.62 11.65 38.73 12.16L38.73 12.16L38.73 12.16Q37.84 12.67 37.03 12.67L37.03 12.67L37.03 12.67Q36.53 12.67 36.08 12.45L36.08 12.45L36.08 12.45Q35.13 11.93 35.13 10.58L35.13 10.58L35.13 10.58Q35.13 9.62 35.56 8.46L35.56 8.46L35.56 8.46Q35.99 7.31 36.48 6.51L36.48 6.51L36.48 6.51Q37.67 4.62 38.99 4.13L38.99 4.13L38.99 4.13Q39.35 3.99 39.77 3.99L39.77 3.99L39.77 3.99Q40.26 3.99 40.60 4.23L40.60 4.23L40.60 4.23Q40.94 4.48 40.99 5.00L40.99 5.00L40.99 5.05L40.99 5.05Q40.99 5.10 40.96 5.18L40.96 5.18ZM43.30 1.39L43.30 1.39Q43.33 1.12 43.67 0.93L43.67 0.93L43.67 0.93Q44.02 0.74 44.35 0.74L44.35 0.74L44.35 0.74Q44.56 0.74 44.67 0.83L44.67 0.83L44.67 0.83Q44.79 0.91 44.77 1.09L44.77 1.09L44.77 1.09Q44.37 4.75 43.93 8.40L43.93 8.40L43.51 12.05L43.51 12.05Q43.48 12.32 43.13 12.52L43.13 12.52L43.13 12.52Q42.78 12.71 42.43 12.71L42.43 12.71L42.43 12.71Q41.96 12.71 42 12.35L42 12.35L42.66 6.86L42.66 6.86Q43.11 3.00 43.30 1.39L43.30 1.39ZM47.43 1.71L47.43 1.71Q47.28 1.67 47.12 1.67L47.12 1.67L47.12 1.67Q46.82 1.67 46.58 1.82L46.58 1.82L46.58 1.82Q46.27 1.99 46.23 2.16L46.23 2.16L46.23 2.16Q46.05 2.81 45.99 3.02L45.99 3.02L45.99 3.07L45.99 3.07Q45.99 3.14 46.05 3.20L46.05 3.20L46.05 3.20Q46.10 3.26 46.17 3.29L46.17 3.29L46.17 3.29Q46.28 3.35 46.42 3.35L46.42 3.35L46.42 3.35Q46.65 3.35 46.96 3.21L46.96 3.21L46.96 3.21Q47.28 3.08 47.38 2.84L47.38 2.84L47.38 2.84Q47.46 2.60 47.61 2.00L47.61 2.00L47.61 1.97L47.61 1.97Q47.61 1.90 47.56 1.83L47.56 1.83L47.56 1.83Q47.50 1.75 47.43 1.71L47.43 1.71ZM47.35 4.30L46.89 7.32L46.89 7.32Q46.80 7.88 46.57 9.35L46.57 9.35L46.57 9.35Q46.34 10.81 46.19 12.00L46.19 12.00L46.19 12.00Q46.14 12.26 45.82 12.45L45.82 12.45L45.82 12.45Q45.49 12.64 45.15 12.64L45.15 12.64L45.15 12.64Q44.93 12.64 44.81 12.55L44.81 12.55L44.81 12.55Q44.69 12.46 44.72 12.28L44.72 12.28L44.72 12.28Q44.95 10.88 45.23 9.08L45.23 9.08L45.23 9.08Q45.50 7.28 45.61 6.51L45.61 6.51L45.91 4.59L45.91 4.59Q45.95 4.34 46.29 4.16L46.29 4.16L46.29 4.16Q46.63 3.98 46.96 3.98L46.96 3.98L46.96 3.98Q47.15 3.98 47.26 4.06L47.26 4.06L47.26 4.06Q47.38 4.14 47.35 4.30L47.35 4.30ZM52.74 3.47L52.74 3.47Q52.81 3.28 53.10 3.13L53.10 3.13L53.10 3.13Q53.40 2.98 53.69 2.98L53.69 2.98L53.69 2.98Q54.11 2.98 54.11 3.28L54.11 3.28L54.11 3.28Q54.11 3.32 54.08 3.43L54.08 3.43L54.08 3.43Q53.48 5.47 53.02 6.55L53.02 6.55L53.02 6.55Q52.93 6.76 52.63 6.91L52.63 6.91L52.63 6.91Q52.33 7.06 52.04 7.06L52.04 7.06L52.04 7.06Q51.69 7.06 51.63 6.82L51.63 6.82L51.63 6.82Q51.38 5.70 50.85 5.70L50.85 5.70L50.85 5.70Q50.60 5.70 50.29 5.96L50.29 5.96L50.29 5.96Q49.62 6.58 49.23 7.63L49.23 7.63L49.23 7.63Q48.85 8.68 48.85 9.63L48.85 9.63L48.85 9.63Q48.85 10.33 49.08 10.88L49.08 10.88L49.08 10.88Q49.32 11.44 49.88 11.58L49.88 11.58L49.88 11.58Q49.97 11.61 50.15 11.61L50.15 11.61L50.15 11.61Q50.61 11.61 51.07 11.26L51.07 11.26L51.07 11.26Q51.52 10.92 51.81 10.55L51.81 10.55L51.81 10.55Q52.11 10.18 52.57 9.53L52.57 9.53L52.57 9.53Q52.68 9.38 52.92 9.29L52.92 9.29L52.92 9.29Q53.16 9.20 53.40 9.20L53.40 9.20L53.40 9.20Q53.62 9.20 53.75 9.28L53.75 9.28L53.75 9.28Q53.89 9.35 53.89 9.51L53.89 9.51L53.89 9.51Q53.89 9.65 53.79 9.80L53.79 9.80L53.79 9.80Q53.05 10.96 51.98 11.81L51.98 11.81L51.98 11.81Q50.92 12.66 49.74 12.66L49.74 12.66L49.74 12.66Q49.50 12.66 49.27 12.61L49.27 12.61L49.27 12.61Q48.33 12.46 47.87 11.70L47.87 11.70L47.87 11.70Q47.40 10.93 47.40 9.93L47.40 9.93L47.40 9.93Q47.40 9.56 47.47 9.14L47.47 9.14L47.47 9.14Q47.70 7.80 48.37 6.63L48.37 6.63L48.37 6.63Q49.04 5.46 50.13 4.91L50.13 4.91L50.13 4.91Q50.68 4.65 51.23 4.65L51.23 4.65L51.23 4.65Q51.74 4.65 52.18 4.93L52.18 4.93L52.74 3.47Z"></path></g><!----><g data-v-423bf9ae="" id="a8b473c4-0f79-4e34-99bd-890ea1bf5556" transform="matrix(1,0,0,1,-5,-5)" stroke="none" fill="black"><path d="M50 7c23.7 0 43 19.3 43 43S73.7 93 50 93 7 73.7 7 50 26.3 7 50 7m0-2C25.2 5 5 25.1 5 50s20.2 45 45 45 45-20.1 45-45S74.8 5 50 5z"></path><path d="M61.7 40.7L58 52.9l-.3 1H36.9s-.2-.3-.5-1.1l-3.7-12.1h29m2.6-2H30l4.5 14.7c.5 1.6 1.1 2.5 2.5 2.5h22.1l.7-2.5 3.7-12.2.8-2.5z"></path><circle cx="38.4" cy="66.7" r="1.9"></circle><circle cx="54.4" cy="66.7" r="1.9"></circle><path d="M53 62.9H35v-2.5h18c1.9 0 2.4-.5 2.7-1.6l.5-1.6c1.1-3.3 3.3-10.3 4.5-14.5 1.4-5.1 3.4-11.3 3.4-11.3l.3-.9H70V33h-3.9c-.6 1.9-2 6.5-3.1 10.4-1.2 4.2-3.4 11.2-4.5 14.6l-.5 1.6c-.7 2.2-2.3 3.3-5 3.3z"></path></g><!----><g data-v-423bf9ae="" id="a748b295-4c68-4465-bcdf-48516c83636f" fill="black" transform="matrix(0.4257532101989999,0,0,0.4257532101989999,109.39968809037373,57.96064114616263)"><path d="M10.54 5.74L10.54 5.74L10.54 5.74Q10.58 5.98 10.61 6.07L10.61 6.07L10.61 6.07Q10.63 6.16 10.63 6.31L10.63 6.31L10.63 6.31Q10.63 6.78 10.42 7.18L10.42 7.18L10.42 7.18Q10.22 7.57 9.87 7.74L9.87 7.74L9.87 7.74Q9.59 7.36 9.18 7.09L9.18 7.09L9.18 7.09Q8.78 6.82 8.29 6.64L8.29 6.64L8.29 6.64Q7.81 6.47 7.29 6.38L7.29 6.38L7.29 6.38Q6.78 6.30 6.29 6.30L6.29 6.30L6.29 6.30Q5.80 6.30 5.37 6.38L5.37 6.38L5.37 6.38Q4.94 6.45 4.61 6.59L4.61 6.59L4.61 6.59Q4.28 6.72 4.09 6.92L4.09 6.92L4.09 6.92Q3.91 7.11 3.91 7.36L3.91 7.36L3.91 7.36Q3.95 7.67 4.28 7.99L4.28 7.99L4.28 7.99Q4.62 8.30 5.11 8.60L5.11 8.60L5.11 8.60Q5.60 8.90 6.20 9.20L6.20 9.20L6.20 9.20Q6.79 9.49 7.36 9.76L7.36 9.76L7.36 9.76Q8.08 10.09 8.60 10.38L8.60 10.38L8.60 10.38Q9.11 10.67 9.45 11.01L9.45 11.01L9.45 11.01Q9.79 11.35 9.95 11.79L9.95 11.79L9.95 11.79Q10.12 12.22 10.12 12.84L10.12 12.84L10.12 12.84Q10.12 13.55 9.88 14.18L9.88 14.18L9.88 14.18Q9.65 14.80 9.19 15.26L9.19 15.26L9.19 15.26Q8.74 15.72 8.09 15.98L8.09 15.98L8.09 15.98Q7.45 16.24 6.65 16.24L6.65 16.24L6.65 16.24Q5.87 16.24 4.96 16.00L4.96 16.00L4.96 16.00Q4.05 15.76 3.25 15.35L3.25 15.35L3.25 15.35Q2.46 14.94 1.94 14.40L1.94 14.40L1.94 14.40Q1.41 13.86 1.41 13.26L1.41 13.26L1.41 13.26Q1.41 12.98 1.57 12.54L1.57 12.54L1.57 12.54Q1.74 12.11 2.16 11.63L2.16 11.63L2.16 11.63Q2.20 12.05 2.61 12.63L2.61 12.63L2.61 12.63Q3.02 13.20 3.85 13.69L3.85 13.69L3.85 13.69Q4.62 14.14 5.44 14.34L5.44 14.34L5.44 14.34Q6.26 14.55 6.97 14.55L6.97 14.55L6.97 14.55Q7.76 14.55 8.25 14.35L8.25 14.35L8.25 14.35Q8.74 14.15 9.02 13.88L9.02 13.88L9.02 13.88Q9.30 13.61 9.41 13.33L9.41 13.33L9.41 13.33Q9.52 13.05 9.53 12.88L9.53 12.88L9.53 12.88Q9.52 12.60 9.28 12.34L9.28 12.34L9.28 12.34Q9.03 12.08 8.62 11.84L8.62 11.84L8.62 11.84Q8.20 11.59 7.66 11.34L7.66 11.34L7.66 11.34Q7.11 11.09 6.52 10.84L6.52 10.84L6.52 10.84Q5.64 10.44 5.00 10.10L5.00 10.10L5.00 10.10Q4.37 9.76 3.96 9.40L3.96 9.40L3.96 9.40Q3.54 9.04 3.35 8.65L3.35 8.65L3.35 8.65Q3.16 8.26 3.16 7.76L3.16 7.76L3.16 7.76Q3.16 6.97 3.64 6.27L3.64 6.27L3.64 6.27Q4.12 5.57 5.01 5.21L5.01 5.21L5.01 5.21Q5.46 5.01 5.97 4.93L5.97 4.93L5.97 4.93Q6.48 4.84 6.97 4.84L6.97 4.84L6.97 4.84Q7.90 4.84 8.78 5.10L8.78 5.10L8.78 5.10Q9.66 5.35 10.54 5.74ZM23.70 14.36L23.70 14.36L23.70 14.36Q23.70 13.78 23.90 12.85L23.90 12.85L23.90 12.85Q24.09 11.93 24.42 10.88L24.42 10.88L24.42 10.88Q23.49 10.95 22.56 11.06L22.56 11.06L22.56 11.06Q21.63 11.17 20.94 11.19L20.94 11.19L20.94 11.19Q20.31 12.66 19.94 13.89L19.94 13.89L19.94 13.89Q19.57 15.13 19.36 16.31L19.36 16.31L19.36 16.31Q18.83 16.18 18.48 15.87L18.48 15.87L18.48 15.87Q18.13 15.55 17.84 15.08L17.84 15.08L17.84 15.08Q17.95 14.85 18.09 14.50L18.09 14.50L18.09 14.50Q18.24 14.15 18.45 13.66L18.45 13.66L18.45 13.66Q18.65 13.16 18.91 12.50L18.91 12.50L18.91 12.50Q19.17 11.83 19.50 10.95L19.50 10.95L19.50 10.95Q19.04 10.75 18.89 10.40L18.89 10.40L18.89 10.40Q18.96 10.35 19.20 10.28L19.20 10.28L19.20 10.28Q19.45 10.22 19.81 10.15L19.81 10.15L19.99 9.70L19.99 9.70Q20.29 8.95 20.48 8.43L20.48 8.43L20.48 8.43Q20.66 7.91 20.80 7.41L20.80 7.41L20.80 7.41Q20.93 6.92 21.05 6.31L21.05 6.31L21.05 6.31Q21.17 5.71 21.34 4.79L21.34 4.79L21.34 4.79Q21.92 4.90 22.41 5.31L22.41 5.31L22.41 5.31Q22.89 5.71 23.24 6.29L23.24 6.29L23.24 6.29Q23.11 6.45 22.93 6.79L22.93 6.79L22.93 6.79Q22.75 7.13 22.53 7.59L22.53 7.59L22.53 7.59Q22.32 8.06 22.06 8.64L22.06 8.64L22.06 8.64Q21.81 9.23 21.52 9.87L21.52 9.87L21.52 9.87Q22.39 9.76 23.27 9.66L23.27 9.66L23.27 9.66Q24.16 9.56 24.85 9.52L24.85 9.52L24.85 9.52Q25.10 8.79 25.38 8.10L25.38 8.10L25.38 8.10Q25.65 7.41 25.91 6.83L25.91 6.83L25.91 6.83Q26.18 6.26 26.42 5.82L26.42 5.82L26.42 5.82Q26.67 5.39 26.87 5.18L26.87 5.18L26.87 5.18Q27.01 5.19 27.24 5.29L27.24 5.29L27.24 5.29Q27.47 5.38 27.71 5.50L27.71 5.50L27.71 5.50Q27.94 5.63 28.14 5.78L28.14 5.78L28.14 5.78Q28.34 5.92 28.41 6.05L28.41 6.05L28.41 6.05Q28.15 6.29 27.90 6.66L27.90 6.66L27.90 6.66Q27.65 7.04 27.41 7.53L27.41 7.53L27.41 7.53Q27.16 8.02 26.92 8.60L26.92 8.60L26.92 8.60Q26.68 9.17 26.47 9.79L26.47 9.79L26.47 9.79Q26.75 10.04 26.75 10.42L26.75 10.42L26.75 10.42Q26.75 10.68 26.64 10.91L26.64 10.91L26.64 10.91Q26.52 10.88 26.39 10.87L26.39 10.87L26.39 10.87Q26.26 10.86 26.12 10.85L26.12 10.85L26.12 10.85Q25.89 11.61 25.69 12.35L25.69 12.35L25.69 12.35Q25.49 13.09 25.36 13.76L25.36 13.76L25.36 13.76Q25.23 14.43 25.15 14.99L25.15 14.99L25.15 14.99Q25.07 15.55 25.07 15.93L25.07 15.93L25.07 15.93Q25.07 16.07 25.08 16.16L25.08 16.16L25.08 16.16Q25.09 16.24 25.10 16.30L25.10 16.30L25.10 16.30Q24.79 16.28 24.65 16.19L24.65 16.19L24.65 16.19Q24.51 16.10 24.44 16.00L24.44 16.00L24.44 16.00Q24.37 15.89 24.32 15.79L24.32 15.79L24.32 15.79Q24.26 15.68 24.14 15.62L24.14 15.62L24.14 15.62Q24.04 15.58 23.95 15.43L23.95 15.43L23.95 15.43Q23.87 15.27 23.81 15.08L23.81 15.08L23.81 15.08Q23.76 14.88 23.73 14.69L23.73 14.69L23.73 14.69Q23.70 14.49 23.70 14.36ZM41.15 4.98L41.15 4.98L41.15 4.98Q41.41 5.10 41.69 5.27L41.69 5.27L41.69 5.27Q41.97 5.45 42.21 5.63L42.21 5.63L42.21 5.63Q42.45 5.81 42.61 5.98L42.61 5.98L42.61 5.98Q42.77 6.16 42.78 6.27L42.78 6.27L42.78 6.27Q42.55 6.22 42.31 6.20L42.31 6.20L42.31 6.20Q42.07 6.17 41.87 6.17L41.87 6.17L41.87 6.17Q41.24 6.17 40.62 6.48L40.62 6.48L40.62 6.48Q40.00 6.79 39.44 7.32L39.44 7.32L39.44 7.32Q38.88 7.85 38.40 8.57L38.40 8.57L38.40 8.57Q37.93 9.28 37.58 10.09L37.58 10.09L37.58 10.09Q37.24 10.91 37.04 11.77L37.04 11.77L37.04 11.77Q36.85 12.64 36.85 13.48L36.85 13.48L36.85 13.48Q36.85 14.57 37.21 15.11L37.21 15.11L37.21 15.11Q37.58 15.64 38.28 15.64L38.28 15.64L38.28 15.64Q38.61 15.64 39.00 15.51L39.00 15.51L39.00 15.51Q39.40 15.37 39.80 15.13L39.80 15.13L39.80 15.13Q40.21 14.90 40.60 14.56L40.60 14.56L40.60 14.56Q40.99 14.22 41.33 13.82L41.33 13.82L41.33 13.82Q41.82 13.23 42.21 12.48L42.21 12.48L42.21 12.48Q42.60 11.73 42.88 10.89L42.88 10.89L42.88 10.89Q43.15 10.05 43.30 9.16L43.30 9.16L43.30 9.16Q43.44 8.27 43.44 7.42L43.44 7.42L43.44 7.42Q43.44 7.08 43.43 6.85L43.43 6.85L43.43 6.85Q43.41 6.62 43.39 6.46L43.39 6.46L43.39 6.46Q43.37 6.30 43.36 6.20L43.36 6.20L43.36 6.20Q43.34 6.10 43.33 6.03L43.33 6.03L43.33 6.03Q43.50 6.12 43.70 6.24L43.70 6.24L43.70 6.24Q43.90 6.36 44.08 6.59L44.08 6.59L44.08 6.59Q44.25 6.82 44.37 7.20L44.37 7.20L44.37 7.20Q44.49 7.57 44.49 8.18L44.49 8.18L44.49 8.18Q44.49 9.16 44.26 10.10L44.26 10.10L44.26 10.10Q44.03 11.05 43.62 11.90L43.62 11.90L43.62 11.90Q43.20 12.75 42.64 13.50L42.64 13.50L42.64 13.50Q42.08 14.24 41.44 14.80L41.44 14.80L41.44 14.80Q40.60 15.54 39.65 15.95L39.65 15.95L39.65 15.95Q38.70 16.35 37.81 16.35L37.81 16.35L37.81 16.35Q36.53 16.35 35.85 15.53L35.85 15.53L35.85 15.53Q35.17 14.71 35.17 13.12L35.17 13.12L35.17 13.12Q35.17 12.26 35.36 11.31L35.36 11.31L35.36 11.31Q35.55 10.36 35.89 9.44L35.89 9.44L35.89 9.44Q36.23 8.51 36.71 7.68L36.71 7.68L36.71 7.68Q37.18 6.85 37.75 6.21L37.75 6.21L37.75 6.21Q38.32 5.57 38.97 5.19L38.97 5.19L38.97 5.19Q39.62 4.82 40.31 4.82L40.31 4.82L40.31 4.82Q40.53 4.82 40.73 4.85L40.73 4.85L40.73 4.85Q40.92 4.89 41.15 4.98ZM61.35 7.63L61.35 7.63L61.35 7.63Q61.35 8.40 60.96 9.10L60.96 9.10L60.96 9.10Q60.58 9.80 59.93 10.32L59.93 10.32L59.93 10.32Q59.28 10.85 58.40 11.16L58.40 11.16L58.40 11.16Q57.53 11.47 56.55 11.47L56.55 11.47L56.55 11.47Q56.20 11.47 55.99 11.38L55.99 11.38L55.99 11.38Q55.79 11.28 55.54 11.02L55.54 11.02L55.54 11.02Q54.84 12.54 54.40 13.82L54.40 13.82L54.40 13.82Q53.96 15.11 53.70 16.31L53.70 16.31L53.70 16.31Q53.17 16.18 52.84 15.87L52.84 15.87L52.84 15.87Q52.50 15.55 52.22 15.08L52.22 15.08L52.22 15.08Q52.36 14.81 52.56 14.38L52.56 14.38L52.56 14.38Q52.75 13.94 53.03 13.31L53.03 13.31L53.03 13.31Q53.31 12.67 53.68 11.78L53.68 11.78L53.68 11.78Q54.05 10.89 54.56 9.70L54.56 9.70L54.56 9.70Q54.78 9.16 54.95 8.75L54.95 8.75L54.95 8.75Q55.12 8.34 55.24 7.99L55.24 7.99L55.24 7.99Q55.37 7.63 55.48 7.28L55.48 7.28L55.48 7.28Q55.58 6.93 55.69 6.51L55.69 6.51L55.69 6.51Q55.03 6.72 54.48 7L54.48 7L54.48 7Q53.93 7.28 53.56 7.59L53.56 7.59L53.56 7.59Q53.44 7.50 53.30 7.34L53.30 7.34L53.30 7.34Q53.17 7.17 53.06 6.96L53.06 6.96L53.06 6.96Q52.95 6.76 52.86 6.55L52.86 6.55L52.86 6.55Q52.78 6.34 52.77 6.17L52.77 6.17L52.77 6.17Q53.17 5.89 53.77 5.66L53.77 5.66L53.77 5.66Q54.38 5.42 55.06 5.24L55.06 5.24L55.06 5.24Q55.75 5.07 56.48 4.97L56.48 4.97L56.48 4.97Q57.22 4.87 57.89 4.87L57.89 4.87L57.89 4.87Q58.69 4.87 59.33 5.07L59.33 5.07L59.33 5.07Q59.98 5.28 60.42 5.64L60.42 5.64L60.42 5.64Q60.87 6.01 61.11 6.51L61.11 6.51L61.11 6.51Q61.35 7.01 61.35 7.63ZM58.86 5.95L58.86 5.95L58.86 5.95Q58.32 5.95 57.76 6.03L57.76 6.03L57.93 6.29L57.93 6.29Q57.79 6.47 57.58 6.83L57.58 6.83L57.58 6.83Q57.37 7.20 57.12 7.71L57.12 7.71L57.12 7.71Q56.87 8.22 56.57 8.85L56.57 8.85L56.57 8.85Q56.27 9.48 55.93 10.18L55.93 10.18L55.93 10.18Q57.02 10.18 57.92 9.97L57.92 9.97L57.92 9.97Q58.81 9.77 59.45 9.41L59.45 9.41L59.45 9.41Q60.09 9.06 60.45 8.58L60.45 8.58L60.45 8.58Q60.80 8.11 60.80 7.56L60.80 7.56L60.80 7.56Q60.80 6.83 60.31 6.39L60.31 6.39L60.31 6.39Q59.82 5.95 58.86 5.95ZM77.34 7.63L77.34 7.63L77.34 7.63Q77.34 8.40 76.95 9.10L76.95 9.10L76.95 9.10Q76.57 9.80 75.92 10.32L75.92 10.32L75.92 10.32Q75.26 10.85 74.39 11.16L74.39 11.16L74.39 11.16Q73.51 11.47 72.53 11.47L72.53 11.47L72.53 11.47Q72.18 11.47 71.98 11.38L71.98 11.38L71.98 11.38Q71.78 11.28 71.53 11.02L71.53 11.02L71.53 11.02Q70.83 12.54 70.39 13.82L70.39 13.82L70.39 13.82Q69.94 15.11 69.69 16.31L69.69 16.31L69.69 16.31Q69.16 16.18 68.82 15.87L68.82 15.87L68.82 15.87Q68.49 15.55 68.21 15.08L68.21 15.08L68.21 15.08Q68.35 14.81 68.54 14.38L68.54 14.38L68.54 14.38Q68.74 13.94 69.02 13.31L69.02 13.31L69.02 13.31Q69.30 12.67 69.67 11.78L69.67 11.78L69.67 11.78Q70.04 10.89 70.55 9.70L70.55 9.70L70.55 9.70Q70.77 9.16 70.94 8.75L70.94 8.75L70.94 8.75Q71.11 8.34 71.23 7.99L71.23 7.99L71.23 7.99Q71.36 7.63 71.46 7.28L71.46 7.28L71.46 7.28Q71.57 6.93 71.68 6.51L71.68 6.51L71.68 6.51Q71.02 6.72 70.47 7L70.47 7L70.47 7Q69.92 7.28 69.55 7.59L69.55 7.59L69.55 7.59Q69.43 7.50 69.29 7.34L69.29 7.34L69.29 7.34Q69.16 7.17 69.05 6.96L69.05 6.96L69.05 6.96Q68.94 6.76 68.85 6.55L68.85 6.55L68.85 6.55Q68.77 6.34 68.75 6.17L68.75 6.17L68.75 6.17Q69.16 5.89 69.76 5.66L69.76 5.66L69.76 5.66Q70.36 5.42 71.05 5.24L71.05 5.24L71.05 5.24Q71.74 5.07 72.47 4.97L72.47 4.97L72.47 4.97Q73.21 4.87 73.88 4.87L73.88 4.87L73.88 4.87Q74.68 4.87 75.32 5.07L75.32 5.07L75.32 5.07Q75.96 5.28 76.41 5.64L76.41 5.64L76.41 5.64Q76.86 6.01 77.10 6.51L77.10 6.51L77.10 6.51Q77.34 7.01 77.34 7.63ZM74.84 5.95L74.84 5.95L74.84 5.95Q74.31 5.95 73.75 6.03L73.75 6.03L73.92 6.29L73.92 6.29Q73.78 6.47 73.57 6.83L73.57 6.83L73.57 6.83Q73.36 7.20 73.11 7.71L73.11 7.71L73.11 7.71Q72.86 8.22 72.56 8.85L72.56 8.85L72.56 8.85Q72.25 9.48 71.92 10.18L71.92 10.18L71.92 10.18Q73.01 10.18 73.91 9.97L73.91 9.97L73.91 9.97Q74.80 9.77 75.44 9.41L75.44 9.41L75.44 9.41Q76.08 9.06 76.43 8.58L76.43 8.58L76.43 8.58Q76.79 8.11 76.79 7.56L76.79 7.56L76.79 7.56Q76.79 6.83 76.30 6.39L76.30 6.39L76.30 6.39Q75.81 5.95 74.84 5.95ZM84.21 14.38L84.21 14.38L84.21 14.38Q84.21 13.87 84.37 13.07L84.37 13.07L84.37 13.07Q84.53 12.26 84.79 11.33L84.79 11.33L84.79 11.33Q85.05 10.40 85.39 9.43L85.39 9.43L85.39 9.43Q85.72 8.46 86.07 7.60L86.07 7.60L86.07 7.60Q86.42 6.75 86.76 6.10L86.76 6.10L86.76 6.10Q87.09 5.46 87.36 5.18L87.36 5.18L87.36 5.18Q87.50 5.19 87.73 5.29L87.73 5.29L87.73 5.29Q87.96 5.38 88.20 5.50L88.20 5.50L88.20 5.50Q88.44 5.63 88.63 5.78L88.63 5.78L88.63 5.78Q88.83 5.92 88.89 6.05L88.89 6.05L88.89 6.05Q88.48 6.41 88.08 7.15L88.08 7.15L88.08 7.15Q87.68 7.88 87.31 8.82L87.31 8.82L87.31 8.82Q86.94 9.76 86.62 10.80L86.62 10.80L86.62 10.80Q86.30 11.84 86.06 12.82L86.06 12.82L86.06 12.82Q85.82 13.80 85.69 14.64L85.69 14.64L85.69 14.64Q85.55 15.48 85.55 16.00L85.55 16.00L85.55 16.00Q85.55 16.24 85.60 16.30L85.60 16.30L85.60 16.30Q85.29 16.28 85.15 16.19L85.15 16.19L85.15 16.19Q85.01 16.10 84.93 16.00L84.93 16.00L84.93 16.00Q84.85 15.89 84.79 15.79L84.79 15.79L84.79 15.79Q84.73 15.68 84.60 15.62L84.60 15.62L84.60 15.62Q84.50 15.58 84.43 15.43L84.43 15.43L84.43 15.43Q84.36 15.27 84.31 15.09L84.31 15.09L84.31 15.09Q84.27 14.90 84.24 14.70L84.24 14.70L84.24 14.70Q84.21 14.50 84.21 14.38ZM96.45 16.24L96.45 16.24L96.45 16.24Q95.65 16.00 95.37 15.79L95.37 15.79L95.37 15.79Q95.09 15.57 95.09 15.19L95.09 15.19L95.09 15.19Q95.09 14.77 95.28 14.01L95.28 14.01L95.28 14.01Q95.48 13.24 95.80 12.31L95.80 12.31L95.80 12.31Q96.11 11.37 96.52 10.35L96.52 10.35L96.52 10.35Q96.92 9.32 97.34 8.39L97.34 8.39L97.34 8.39Q97.76 7.45 98.16 6.67L98.16 6.67L98.16 6.67Q98.56 5.89 98.87 5.46L98.87 5.46L98.77 4.87L98.77 4.87Q98.97 4.87 99.32 4.97L99.32 4.97L99.32 4.97Q99.67 5.07 100.02 5.21L100.02 5.21L100.02 5.21Q100.38 5.35 100.65 5.49L100.65 5.49L100.65 5.49Q100.93 5.64 100.95 5.74L100.95 5.74L100.95 5.74Q100.88 6.08 100.84 6.76L100.84 6.76L100.84 6.76Q100.80 7.43 100.80 8.20L100.80 8.20L100.80 8.20Q100.80 9.73 100.92 11.19L100.92 11.19L100.92 11.19Q101.04 12.66 101.47 14.17L101.47 14.17L101.47 14.17Q101.70 13.05 101.95 11.94L101.95 11.94L101.95 11.94Q102.21 10.82 102.49 9.81L102.49 9.81L102.49 9.81Q102.77 8.79 103.05 7.92L103.05 7.92L103.05 7.92Q103.33 7.06 103.59 6.40L103.59 6.40L103.59 6.40Q103.85 5.75 104.08 5.38L104.08 5.38L104.08 5.38Q104.30 5.01 104.48 4.98L104.48 4.98L104.48 4.98Q104.64 5.01 104.82 5.10L104.82 5.10L104.82 5.10Q105 5.19 105.17 5.32L105.17 5.32L105.17 5.32Q105.34 5.45 105.48 5.60L105.48 5.60L105.48 5.60Q105.62 5.75 105.70 5.91L105.70 5.91L105.70 5.91Q105.25 6.09 104.81 6.76L104.81 6.76L104.81 6.76Q104.37 7.43 103.97 8.39L103.97 8.39L103.97 8.39Q103.57 9.35 103.23 10.47L103.23 10.47L103.23 10.47Q102.89 11.59 102.63 12.68L102.63 12.68L102.63 12.68Q102.37 13.76 102.22 14.69L102.22 14.69L102.22 14.69Q102.07 15.61 102.06 16.17L102.06 16.17L102.06 16.17Q102.06 16.20 102.07 16.21L102.07 16.21L102.07 16.21Q102.03 16.23 101.98 16.23L101.98 16.23L101.98 16.23Q101.93 16.23 101.89 16.23L101.89 16.23L101.89 16.23Q101.25 16.23 100.75 16.07L100.75 16.07L100.75 16.07Q100.25 15.90 100.10 15.61L100.10 15.61L100.10 15.61Q99.81 14.43 99.61 13.34L99.61 13.34L99.61 13.34Q99.41 12.25 99.28 11.16L99.28 11.16L99.28 11.16Q99.15 10.07 99.07 8.95L99.07 8.95L99.07 8.95Q98.99 7.84 98.95 6.62L98.95 6.62L98.95 6.62Q98.69 7.04 98.39 7.72L98.39 7.72L98.39 7.72Q98.10 8.40 97.82 9.21L97.82 9.21L97.82 9.21Q97.54 10.02 97.28 10.92L97.28 10.92L97.28 10.92Q97.02 11.82 96.82 12.67L96.82 12.67L96.82 12.67Q96.63 13.52 96.52 14.29L96.52 14.29L96.52 14.29Q96.40 15.05 96.40 15.61L96.40 15.61L96.40 15.61Q96.40 15.90 96.41 16.03L96.41 16.03L96.41 16.03Q96.42 16.16 96.45 16.24ZM119.52 10.72L119.52 10.72L119.52 10.72Q119.88 10.72 120.09 10.98L120.09 10.98L120.09 10.98Q120.30 11.23 120.30 11.68L120.30 11.68L120.30 11.68Q120.30 11.79 120.29 11.91L120.29 11.91L120.29 11.91Q120.27 12.03 120.25 12.11L120.25 12.11L120.25 12.11Q119.95 12.04 119.60 12.03L119.60 12.03L119.60 12.03Q119.52 12.64 119.15 13.32L119.15 13.32L119.15 13.32Q118.79 14 118.27 14.60L118.27 14.60L118.27 14.60Q117.75 15.19 117.14 15.64L117.14 15.64L117.14 15.64Q116.52 16.09 115.92 16.24L115.92 16.24L115.92 16.24Q114.04 16.20 113.18 15.27L113.18 15.27L113.18 15.27Q112.32 14.34 112.32 12.36L112.32 12.36L112.32 12.36Q112.32 10.92 112.85 9.57L112.85 9.57L112.85 9.57Q113.39 8.22 114.27 7.17L114.27 7.17L114.27 7.17Q115.15 6.12 116.29 5.48L116.29 5.48L116.29 5.48Q117.43 4.84 118.66 4.84L118.66 4.84L118.66 4.84Q119.63 4.84 120.17 5.25L120.17 5.25L120.17 5.25Q120.71 5.66 120.71 6.40L120.71 6.40L120.71 6.40Q120.71 6.89 120.48 7.31L120.48 7.31L120.48 7.31Q120.25 7.73 119.71 8.22L119.71 8.22L119.71 8.22Q119.39 8.12 119.15 7.88L119.15 7.88L119.15 7.88Q118.92 7.63 118.86 7.31L118.86 7.31L118.86 7.31Q119.34 6.96 119.53 6.66L119.53 6.66L119.53 6.66Q119.73 6.37 119.73 5.96L119.73 5.96L119.73 5.96Q119.73 5.32 118.96 5.32L118.96 5.32L118.96 5.32Q118.33 5.32 117.61 5.79L117.61 5.79L117.61 5.79Q116.89 6.26 116.16 7.14L116.16 7.14L116.16 7.14Q115.12 8.39 114.65 9.71L114.65 9.71L114.65 9.71Q114.17 11.03 114.17 12.68L114.17 12.68L114.17 12.68Q114.17 13.30 114.30 13.80L114.30 13.80L114.30 13.80Q114.42 14.31 114.63 14.69L114.63 14.69L114.63 14.69Q114.84 15.06 115.13 15.29L115.13 15.29L115.13 15.29Q115.42 15.51 115.75 15.54L115.75 15.54L115.75 15.54Q116.20 15.44 116.65 15.09L116.65 15.09L116.65 15.09Q117.10 14.73 117.47 14.25L117.47 14.25L117.47 14.25Q117.84 13.76 118.10 13.21L118.10 13.21L118.10 13.21Q118.36 12.66 118.41 12.15L118.41 12.15L118.41 12.15Q118.02 12.24 117.66 12.31L117.66 12.31L117.66 12.31Q117.31 12.39 116.98 12.39L116.98 12.39L116.98 12.39Q116.56 12.39 116.25 12.18L116.25 12.18L116.25 12.18Q115.93 11.97 115.82 11.61L115.82 11.61L115.82 11.61Q116.07 11.47 116.56 11.31L116.56 11.31L116.56 11.31Q117.04 11.16 117.59 11.03L117.59 11.03L117.59 11.03Q118.13 10.89 118.66 10.81L118.66 10.81L118.66 10.81Q119.18 10.72 119.52 10.72ZM147.71 7.46L147.71 7.46L147.71 7.46Q147.71 8.13 147.41 8.73L147.41 8.73L147.41 8.73Q147.11 9.32 146.58 9.79L146.58 9.79L146.58 9.79Q146.05 10.26 145.33 10.58L145.33 10.58L145.33 10.58Q144.62 10.91 143.78 11.02L143.78 11.02L143.78 11.02Q143.99 11.65 144.29 12.31L144.29 12.31L144.29 12.31Q144.59 12.98 144.94 13.59L144.94 13.59L144.94 13.59Q145.29 14.21 145.67 14.73L145.67 14.73L145.67 14.73Q146.05 15.25 146.41 15.58L146.41 15.58L146.41 15.58Q146.34 15.72 146.21 15.86L146.21 15.86L146.21 15.86Q146.08 16.00 145.90 16.12L145.90 16.12L145.90 16.12Q145.73 16.24 145.54 16.32L145.54 16.32L145.54 16.32Q145.35 16.39 145.18 16.39L145.18 16.39L145.18 16.39Q144.87 16.39 144.59 16.10L144.59 16.10L144.59 16.10Q144.31 15.81 144.03 15.17L144.03 15.17L144.03 15.17Q143.74 14.53 143.42 13.52L143.42 13.52L143.42 13.52Q143.11 12.50 142.73 11.07L142.73 11.07L142.73 11.07Q142.58 11.07 142.42 11.07L142.42 11.07L142.42 11.07Q142.27 11.07 142.18 11.05L142.18 11.05L142.18 11.05Q142.09 10.99 141.97 10.85L141.97 10.85L141.97 10.85Q141.60 11.66 141.30 12.38L141.30 12.38L141.30 12.38Q141.01 13.09 140.78 13.76L140.78 13.76L140.78 13.76Q140.55 14.42 140.37 15.04L140.37 15.04L140.37 15.04Q140.20 15.67 140.07 16.31L140.07 16.31L140.07 16.31Q139.59 16.20 139.24 15.90L139.24 15.90L139.24 15.90Q138.89 15.61 138.59 15.08L138.59 15.08L138.59 15.08Q138.64 14.95 138.71 14.83L138.71 14.83L138.71 14.83Q138.77 14.71 138.87 14.50L138.87 14.50L138.87 14.50Q138.96 14.28 139.11 13.94L139.11 13.94L139.11 13.94Q139.26 13.61 139.50 13.05L139.50 13.05L139.50 13.05Q139.75 12.49 140.09 11.68L140.09 11.68L140.09 11.68Q140.43 10.86 140.92 9.70L140.92 9.70L140.92 9.70Q141.15 9.18 141.31 8.79L141.31 8.79L141.31 8.79Q141.47 8.40 141.60 8.04L141.60 8.04L141.60 8.04Q141.72 7.69 141.83 7.33L141.83 7.33L141.83 7.33Q141.93 6.97 142.04 6.51L142.04 6.51L142.04 6.51Q141.40 6.73 140.85 7.01L140.85 7.01L140.85 7.01Q140.29 7.28 139.93 7.59L139.93 7.59L139.93 7.59Q139.80 7.50 139.67 7.34L139.67 7.34L139.67 7.34Q139.54 7.17 139.43 6.96L139.43 6.96L139.43 6.96Q139.31 6.76 139.23 6.55L139.23 6.55L139.23 6.55Q139.15 6.34 139.13 6.17L139.13 6.17L139.13 6.17Q139.55 5.89 140.16 5.66L140.16 5.66L140.16 5.66Q140.77 5.42 141.46 5.24L141.46 5.24L141.46 5.24Q142.14 5.07 142.86 4.97L142.86 4.97L142.86 4.97Q143.57 4.87 144.19 4.87L144.19 4.87L144.19 4.87Q145.87 4.87 146.79 5.56L146.79 5.56L146.79 5.56Q147.71 6.26 147.71 7.46ZM144.13 6.02L144.30 6.29L144.30 6.29Q144.20 6.41 143.99 6.79L143.99 6.79L143.99 6.79Q143.78 7.17 143.51 7.69L143.51 7.69L143.51 7.69Q143.23 8.22 142.93 8.83L142.93 8.83L142.93 8.83Q142.63 9.45 142.35 10.05L142.35 10.05L142.35 10.05Q143.40 10.05 144.28 9.86L144.28 9.86L144.28 9.86Q145.17 9.66 145.81 9.30L145.81 9.30L145.81 9.30Q146.45 8.95 146.81 8.46L146.81 8.46L146.81 8.46Q147.17 7.98 147.17 7.39L147.17 7.39L147.17 7.39Q147.17 6.69 146.66 6.32L146.66 6.32L146.66 6.32Q146.16 5.95 145.11 5.95L145.11 5.95L145.11 5.95Q144.87 5.95 144.63 5.97L144.63 5.97L144.63 5.97Q144.40 5.99 144.13 6.02L144.13 6.02ZM160.54 9.21L160.54 9.21L160.54 9.21Q161 9.21 161.26 9.46L161.26 9.46L161.26 9.46Q161.52 9.72 161.52 10.16L161.52 10.16L161.52 10.16Q161.52 10.28 161.50 10.39L161.50 10.39L161.50 10.39Q161.48 10.51 161.45 10.60L161.45 10.60L161.45 10.60Q161.27 10.57 161.04 10.55L161.04 10.55L161.04 10.55Q160.82 10.53 160.51 10.53L160.51 10.53L160.51 10.53Q159.91 10.53 159.29 10.63L159.29 10.63L159.29 10.63Q158.68 10.74 158.12 10.81L158.12 10.81L158.12 10.81Q157.79 11.55 157.53 12.24L157.53 12.24L157.53 12.24Q157.26 12.94 157.07 13.51L157.07 13.51L157.07 13.51Q156.88 14.08 156.78 14.50L156.78 14.50L156.78 14.50Q156.67 14.92 156.66 15.13L156.66 15.13L156.66 15.13Q157.79 14.90 158.95 14.73L158.95 14.73L158.95 14.73Q160.10 14.56 161.38 14.48L161.38 14.48L161.38 14.48Q161.53 14.71 161.64 14.99L161.64 14.99L161.64 14.99Q161.74 15.27 161.74 15.60L161.74 15.60L161.74 15.60Q161.74 15.68 161.74 15.78L161.74 15.78L161.74 15.78Q161.74 15.88 161.71 15.97L161.71 15.97L161.71 15.97Q161.32 15.96 160.89 15.95L160.89 15.95L160.89 15.95Q160.45 15.95 159.75 15.95L159.75 15.95L159.75 15.95Q159.29 15.95 158.88 15.97L158.88 15.97L158.88 15.97Q158.47 15.99 158.05 16.03L158.05 16.03L158.05 16.03Q157.63 16.07 157.16 16.14L157.16 16.14L157.16 16.14Q156.69 16.21 156.10 16.31L156.10 16.31L156.10 16.31Q155.46 16.06 154.85 15.08L154.85 15.08L154.85 15.08Q155.09 14.57 155.52 13.54L155.52 13.54L155.52 13.54Q155.95 12.52 156.60 10.79L156.60 10.79L156.60 10.79Q155.97 10.60 155.78 10.09L155.78 10.09L155.78 10.09Q155.85 10.02 156.18 9.92L156.18 9.92L156.18 9.92Q156.52 9.81 157.01 9.70L157.01 9.70L157.01 9.70Q157.22 9.16 157.37 8.75L157.37 8.75L157.37 8.75Q157.51 8.34 157.63 7.99L157.63 7.99L157.63 7.99Q157.74 7.63 157.83 7.29L157.83 7.29L157.83 7.29Q157.92 6.94 158.00 6.54L158.00 6.54L158.00 6.54Q157.51 6.51 157.23 6.27L157.23 6.27L157.23 6.27Q156.95 6.02 156.95 5.63L156.95 5.63L156.95 5.63Q156.95 5.52 156.99 5.36L156.99 5.36L156.99 5.36Q157.02 5.21 157.07 5.10L157.07 5.10L157.07 5.10Q157.35 5.14 157.61 5.15L157.61 5.15L157.61 5.15Q157.86 5.17 158.28 5.17L158.28 5.17L158.28 5.17Q159.17 5.17 159.94 5.12L159.94 5.12L159.94 5.12Q160.71 5.07 161.33 5.01L161.33 5.01L161.33 5.01Q161.95 4.96 162.40 4.91L162.40 4.91L162.40 4.91Q162.85 4.86 163.09 4.86L163.09 4.86L163.09 4.86Q163.41 4.86 163.66 5.19L163.66 5.19L163.66 5.19Q163.91 5.53 164.04 6.15L164.04 6.15L164.04 6.15Q163.60 6.10 163.33 6.09L163.33 6.09L163.33 6.09Q163.06 6.08 162.85 6.08L162.85 6.08L162.85 6.08Q162.08 6.08 161.44 6.15L161.44 6.15L161.44 6.15Q160.80 6.23 160.22 6.31L160.22 6.31L160.22 6.31Q160.13 6.44 160.03 6.64L160.03 6.64L160.03 6.64Q159.92 6.83 159.75 7.18L159.75 7.18L159.75 7.18Q159.59 7.53 159.34 8.06L159.34 8.06L159.34 8.06Q159.10 8.60 158.75 9.39L158.75 9.39L158.75 9.39Q159.28 9.31 159.75 9.26L159.75 9.26L159.75 9.26Q160.22 9.21 160.54 9.21ZM171.22 14.45L171.22 14.45L171.22 14.45Q171.43 13.99 171.72 13.26L171.72 13.26L171.72 13.26Q172.02 12.53 172.34 11.68L172.34 11.68L172.34 11.68Q172.66 10.84 173.00 9.95L173.00 9.95L173.00 9.95Q173.33 9.06 173.63 8.26L173.63 8.26L173.63 8.26Q173.92 7.46 174.14 6.83L174.14 6.83L174.14 6.83Q174.36 6.20 174.45 5.87L174.45 5.87L174.45 5.87Q173.57 6.23 172.94 6.97L172.94 6.97L172.94 6.97Q172.31 7.71 171.99 8.83L171.99 8.83L171.99 8.83Q171.67 8.72 171.40 8.43L171.40 8.43L171.40 8.43Q171.14 8.15 171.05 7.71L171.05 7.71L171.05 7.71Q171.19 7.07 171.58 6.54L171.58 6.54L171.58 6.54Q171.96 6.01 172.55 5.63L172.55 5.63L172.55 5.63Q173.14 5.25 173.91 5.05L173.91 5.05L173.91 5.05Q174.68 4.84 175.56 4.84L175.56 4.84L175.56 4.84Q176.68 4.84 177.62 5.17L177.62 5.17L177.62 5.17Q178.56 5.50 179.23 6.09L179.23 6.09L179.23 6.09Q179.90 6.68 180.28 7.50L180.28 7.50L180.28 7.50Q180.66 8.33 180.66 9.34L180.66 9.34L180.66 9.34Q180.66 10.71 180.15 11.96L180.15 11.96L180.15 11.96Q179.65 13.20 178.79 14.15L178.79 14.15L178.79 14.15Q177.93 15.11 176.79 15.67L176.79 15.67L176.79 15.67Q175.66 16.24 174.41 16.24L174.41 16.24L174.41 16.24Q173.26 16.24 172.45 15.79L172.45 15.79L172.45 15.79Q171.63 15.33 171.22 14.45ZM176.16 5.54L176.16 5.54L176.16 5.54Q175.46 5.54 174.83 5.74L174.83 5.74L174.83 5.74Q175.45 5.96 175.85 6.21L175.85 6.21L175.85 6.21Q176.26 6.45 176.41 6.59L176.41 6.59L176.41 6.59Q176.30 6.75 176.09 7.14L176.09 7.14L176.09 7.14Q175.87 7.53 175.58 8.09L175.58 8.09L175.58 8.09Q175.29 8.65 174.97 9.32L174.97 9.32L174.97 9.32Q174.65 9.98 174.34 10.68L174.34 10.68L174.34 10.68Q173.54 12.46 173.19 13.48L173.19 13.48L173.19 13.48Q172.83 14.50 172.83 14.90L172.83 14.90L172.83 14.90Q173.03 14.97 173.31 14.99L173.31 14.99L173.31 14.99Q173.59 15.02 173.91 15.02L173.91 15.02L173.91 15.02Q175.04 15.02 176.06 14.50L176.06 14.50L176.06 14.50Q177.07 13.97 177.84 13.09L177.84 13.09L177.84 13.09Q178.60 12.21 179.04 11.04L179.04 11.04L179.04 11.04Q179.48 9.87 179.48 8.58L179.48 8.58L179.48 8.58Q179.48 7.14 178.58 6.34L178.58 6.34L178.58 6.34Q177.69 5.54 176.16 5.54ZM188.59 14.38L188.59 14.38L188.59 14.38Q188.59 13.87 188.76 13.07L188.76 13.07L188.76 13.07Q188.92 12.26 189.18 11.33L189.18 11.33L189.18 11.33Q189.43 10.40 189.77 9.43L189.77 9.43L189.77 9.43Q190.11 8.46 190.46 7.60L190.46 7.60L190.46 7.60Q190.81 6.75 191.14 6.10L191.14 6.10L191.14 6.10Q191.48 5.46 191.74 5.18L191.74 5.18L191.74 5.18Q191.88 5.19 192.12 5.29L192.12 5.29L192.12 5.29Q192.35 5.38 192.58 5.50L192.58 5.50L192.58 5.50Q192.82 5.63 193.02 5.78L193.02 5.78L193.02 5.78Q193.21 5.92 193.27 6.05L193.27 6.05L193.27 6.05Q192.86 6.41 192.47 7.15L192.47 7.15L192.47 7.15Q192.07 7.88 191.70 8.82L191.70 8.82L191.70 8.82Q191.32 9.76 191.00 10.80L191.00 10.80L191.00 10.80Q190.68 11.84 190.44 12.82L190.44 12.82L190.44 12.82Q190.20 13.80 190.07 14.64L190.07 14.64L190.07 14.64Q189.94 15.48 189.94 16.00L189.94 16.00L189.94 16.00Q189.94 16.24 189.98 16.30L189.98 16.30L189.98 16.30Q189.67 16.28 189.53 16.19L189.53 16.19L189.53 16.19Q189.39 16.10 189.32 16.00L189.32 16.00L189.32 16.00Q189.24 15.89 189.18 15.79L189.18 15.79L189.18 15.79Q189.11 15.68 188.99 15.62L188.99 15.62L188.99 15.62Q188.89 15.58 188.82 15.43L188.82 15.43L188.82 15.43Q188.75 15.27 188.70 15.09L188.70 15.09L188.70 15.09Q188.65 14.90 188.62 14.70L188.62 14.70L188.62 14.70Q188.59 14.50 188.59 14.38ZM208.71 5.74L208.71 5.74L208.71 5.74Q208.75 5.98 208.78 6.07L208.78 6.07L208.78 6.07Q208.80 6.16 208.80 6.31L208.80 6.31L208.80 6.31Q208.80 6.78 208.59 7.18L208.59 7.18L208.59 7.18Q208.39 7.57 208.04 7.74L208.04 7.74L208.04 7.74Q207.76 7.36 207.35 7.09L207.35 7.09L207.35 7.09Q206.95 6.82 206.47 6.64L206.47 6.64L206.47 6.64Q205.98 6.47 205.46 6.38L205.46 6.38L205.46 6.38Q204.95 6.30 204.46 6.30L204.46 6.30L204.46 6.30Q203.97 6.30 203.54 6.38L203.54 6.38L203.54 6.38Q203.11 6.45 202.78 6.59L202.78 6.59L202.78 6.59Q202.45 6.72 202.27 6.92L202.27 6.92L202.27 6.92Q202.08 7.11 202.08 7.36L202.08 7.36L202.08 7.36Q202.12 7.67 202.45 7.99L202.45 7.99L202.45 7.99Q202.79 8.30 203.28 8.60L203.28 8.60L203.28 8.60Q203.77 8.90 204.37 9.20L204.37 9.20L204.37 9.20Q204.96 9.49 205.53 9.76L205.53 9.76L205.53 9.76Q206.25 10.09 206.77 10.38L206.77 10.38L206.77 10.38Q207.28 10.67 207.62 11.01L207.62 11.01L207.62 11.01Q207.96 11.35 208.12 11.79L208.12 11.79L208.12 11.79Q208.29 12.22 208.29 12.84L208.29 12.84L208.29 12.84Q208.29 13.55 208.05 14.18L208.05 14.18L208.05 14.18Q207.82 14.80 207.36 15.26L207.36 15.26L207.36 15.26Q206.91 15.72 206.26 15.98L206.26 15.98L206.26 15.98Q205.62 16.24 204.82 16.24L204.82 16.24L204.82 16.24Q204.04 16.24 203.13 16.00L203.13 16.00L203.13 16.00Q202.22 15.76 201.43 15.35L201.43 15.35L201.43 15.35Q200.63 14.94 200.11 14.40L200.11 14.40L200.11 14.40Q199.58 13.86 199.58 13.26L199.58 13.26L199.58 13.26Q199.58 12.98 199.75 12.54L199.75 12.54L199.75 12.54Q199.91 12.11 200.33 11.63L200.33 11.63L200.33 11.63Q200.37 12.05 200.78 12.63L200.78 12.63L200.78 12.63Q201.19 13.20 202.02 13.69L202.02 13.69L202.02 13.69Q202.79 14.14 203.61 14.34L203.61 14.34L203.61 14.34Q204.43 14.55 205.14 14.55L205.14 14.55L205.14 14.55Q205.93 14.55 206.42 14.35L206.42 14.35L206.42 14.35Q206.91 14.15 207.19 13.88L207.19 13.88L207.19 13.88Q207.47 13.61 207.58 13.33L207.58 13.33L207.58 13.33Q207.69 13.05 207.70 12.88L207.70 12.88L207.70 12.88Q207.69 12.60 207.45 12.34L207.45 12.34L207.45 12.34Q207.20 12.08 206.79 11.84L206.79 11.84L206.79 11.84Q206.37 11.59 205.83 11.34L205.83 11.34L205.83 11.34Q205.28 11.09 204.69 10.84L204.69 10.84L204.69 10.84Q203.81 10.44 203.18 10.10L203.18 10.10L203.18 10.10Q202.54 9.76 202.13 9.40L202.13 9.40L202.13 9.40Q201.71 9.04 201.52 8.65L201.52 8.65L201.52 8.65Q201.33 8.26 201.33 7.76L201.33 7.76L201.33 7.76Q201.33 6.97 201.81 6.27L201.81 6.27L201.81 6.27Q202.29 5.57 203.18 5.21L203.18 5.21L203.18 5.21Q203.63 5.01 204.14 4.93L204.14 4.93L204.14 4.93Q204.65 4.84 205.14 4.84L205.14 4.84L205.14 4.84Q206.07 4.84 206.95 5.10L206.95 5.10L206.95 5.10Q207.83 5.35 208.71 5.74ZM216.92 12.43L216.92 12.43L216.92 12.43Q216.92 11.45 217.15 10.51L217.15 10.51L217.15 10.51Q217.38 9.56 217.80 8.71L217.80 8.71L217.80 8.71Q218.22 7.87 218.80 7.16L218.80 7.16L218.80 7.16Q219.38 6.45 220.07 5.94L220.07 5.94L220.07 5.94Q220.77 5.42 221.55 5.13L221.55 5.13L221.55 5.13Q222.33 4.84 223.16 4.84L223.16 4.84L223.16 4.84Q224.13 4.84 224.67 5.25L224.67 5.25L224.67 5.25Q225.20 5.66 225.20 6.38L225.20 6.38L225.20 6.38Q225.20 6.66 225.13 6.96L225.13 6.96L225.13 6.96Q225.05 7.25 224.90 7.54L224.90 7.54L224.90 7.54Q224.76 7.83 224.56 8.09L224.56 8.09L224.56 8.09Q224.36 8.36 224.13 8.55L224.13 8.55L224.13 8.55Q223.76 8.50 223.50 8.22L223.50 8.22L223.50 8.22Q223.23 7.95 223.16 7.59L223.16 7.59L223.16 7.59Q223.65 7.18 223.94 6.74L223.94 6.74L223.94 6.74Q224.22 6.30 224.22 5.94L224.22 5.94L224.22 5.94Q224.22 5.32 223.45 5.32L223.45 5.32L223.45 5.32Q223.13 5.32 222.79 5.45L222.79 5.45L222.79 5.45Q222.45 5.59 222.10 5.82L222.10 5.82L222.10 5.82Q221.75 6.06 221.42 6.40L221.42 6.40L221.42 6.40Q221.09 6.73 220.81 7.14L220.81 7.14L220.81 7.14Q218.86 9.94 218.86 12.87L218.86 12.87L218.86 12.87Q218.86 13.90 219.18 14.53L219.18 14.53L219.18 14.53Q219.51 15.16 220.04 15.27L220.04 15.27L220.04 15.27Q220.64 15.13 221.56 14.50L221.56 14.50L221.56 14.50Q222.49 13.87 223.58 12.87L223.58 12.87L223.58 12.87Q223.72 13.01 223.75 13.16L223.75 13.16L223.75 13.16Q223.34 13.69 222.91 14.18L222.91 14.18L222.91 14.18Q222.47 14.67 222.05 15.08L222.05 15.08L222.05 15.08Q221.62 15.48 221.21 15.79L221.21 15.79L221.21 15.79Q220.79 16.10 220.44 16.27L220.44 16.27L220.44 16.27Q218.71 16.24 217.81 15.27L217.81 15.27L217.81 15.27Q216.92 14.31 216.92 12.43ZM238.25 4.98L238.25 4.98L238.25 4.98Q238.52 5.10 238.80 5.27L238.80 5.27L238.80 5.27Q239.08 5.45 239.32 5.63L239.32 5.63L239.32 5.63Q239.55 5.81 239.72 5.98L239.72 5.98L239.72 5.98Q239.88 6.16 239.89 6.27L239.89 6.27L239.89 6.27Q239.65 6.22 239.41 6.20L239.41 6.20L239.41 6.20Q239.18 6.17 238.98 6.17L238.98 6.17L238.98 6.17Q238.35 6.17 237.73 6.48L237.73 6.48L237.73 6.48Q237.10 6.79 236.54 7.32L236.54 7.32L236.54 7.32Q235.98 7.85 235.51 8.57L235.51 8.57L235.51 8.57Q235.03 9.28 234.69 10.09L234.69 10.09L234.69 10.09Q234.35 10.91 234.15 11.77L234.15 11.77L234.15 11.77Q233.95 12.64 233.95 13.48L233.95 13.48L233.95 13.48Q233.95 14.57 234.32 15.11L234.32 15.11L234.32 15.11Q234.68 15.64 235.38 15.64L235.38 15.64L235.38 15.64Q235.72 15.64 236.11 15.51L236.11 15.51L236.11 15.51Q236.50 15.37 236.91 15.13L236.91 15.13L236.91 15.13Q237.31 14.90 237.71 14.56L237.71 14.56L237.71 14.56Q238.10 14.22 238.43 13.82L238.43 13.82L238.43 13.82Q238.92 13.23 239.32 12.48L239.32 12.48L239.32 12.48Q239.71 11.73 239.98 10.89L239.98 10.89L239.98 10.89Q240.25 10.05 240.40 9.16L240.40 9.16L240.40 9.16Q240.55 8.27 240.55 7.42L240.55 7.42L240.55 7.42Q240.55 7.08 240.53 6.85L240.53 6.85L240.53 6.85Q240.52 6.62 240.50 6.46L240.50 6.46L240.50 6.46Q240.48 6.30 240.46 6.20L240.46 6.20L240.46 6.20Q240.45 6.10 240.44 6.03L240.44 6.03L240.44 6.03Q240.60 6.12 240.81 6.24L240.81 6.24L240.81 6.24Q241.01 6.36 241.19 6.59L241.19 6.59L241.19 6.59Q241.36 6.82 241.48 7.20L241.48 7.20L241.48 7.20Q241.60 7.57 241.60 8.18L241.60 8.18L241.60 8.18Q241.60 9.16 241.37 10.10L241.37 10.10L241.37 10.10Q241.14 11.05 240.72 11.90L240.72 11.90L240.72 11.90Q240.31 12.75 239.75 13.50L239.75 13.50L239.75 13.50Q239.19 14.24 238.55 14.80L238.55 14.80L238.55 14.80Q237.71 15.54 236.75 15.95L236.75 15.95L236.75 15.95Q235.80 16.35 234.92 16.35L234.92 16.35L234.92 16.35Q233.63 16.35 232.95 15.53L232.95 15.53L232.95 15.53Q232.27 14.71 232.27 13.12L232.27 13.12L232.27 13.12Q232.27 12.26 232.46 11.31L232.46 11.31L232.46 11.31Q232.65 10.36 233.00 9.44L233.00 9.44L233.00 9.44Q233.34 8.51 233.81 7.68L233.81 7.68L233.81 7.68Q234.29 6.85 234.86 6.21L234.86 6.21L234.86 6.21Q235.42 5.57 236.08 5.19L236.08 5.19L236.08 5.19Q236.73 4.82 237.41 4.82L237.41 4.82L237.41 4.82Q237.64 4.82 237.83 4.85L237.83 4.85L237.83 4.85Q238.03 4.89 238.25 4.98ZM253.16 16.07L253.16 16.07L253.16 16.07Q252.84 16.24 252.48 16.24L252.48 16.24L252.48 16.24Q252.03 16.18 251.62 16.02L251.62 16.02L251.62 16.02Q251.20 15.85 251.01 15.61L251.01 15.61L251.01 15.61Q250.89 14.92 250.82 14.35L250.82 14.35L250.82 14.35Q250.75 13.78 250.71 13.27L250.71 13.27L250.71 13.27Q250.67 12.75 250.66 12.29L250.66 12.29L250.66 12.29Q250.64 11.82 250.64 11.34L250.64 11.34L250.64 11.34Q250.64 10.71 250.66 10.01L250.66 10.01L250.66 10.01Q250.67 9.31 250.69 8.52L250.69 8.52L250.69 8.52Q250.71 7.73 250.73 6.82L250.73 6.82L250.73 6.82Q250.74 5.92 250.74 4.86L250.74 4.86L250.74 4.86Q250.92 4.86 251.29 4.96L251.29 4.96L251.29 4.96Q251.65 5.07 252.01 5.21L252.01 5.21L252.01 5.21Q252.36 5.35 252.64 5.49L252.64 5.49L252.64 5.49Q252.92 5.64 252.95 5.74L252.95 5.74L252.95 5.74Q252.81 6.13 252.71 6.76L252.71 6.76L252.71 6.76Q252.60 7.39 252.54 8.16L252.54 8.16L252.54 8.16Q252.48 8.93 252.45 9.79L252.45 9.79L252.45 9.79Q252.42 10.64 252.42 11.48L252.42 11.48L252.42 11.48Q252.42 12.11 252.43 12.61L252.43 12.61L252.43 12.61Q252.45 13.10 252.47 13.50L252.47 13.50L252.47 13.50Q252.49 13.90 252.53 14.25L252.53 14.25L252.53 14.25Q252.57 14.59 252.63 14.92L252.63 14.92L252.63 14.92Q253.02 13.73 253.49 12.54L253.49 12.54L253.49 12.54Q253.96 11.35 254.46 10.25L254.46 10.25L254.46 10.25Q254.95 9.16 255.44 8.20L255.44 8.20L255.44 8.20Q255.93 7.25 256.38 6.54L256.38 6.54L256.38 6.54Q256.82 5.84 257.17 5.43L257.17 5.43L257.17 5.43Q257.52 5.01 257.74 4.98L257.74 4.98L257.74 4.98Q257.89 5.01 258.07 5.10L258.07 5.10L258.07 5.10Q258.24 5.19 258.40 5.32L258.40 5.32L258.40 5.32Q258.55 5.45 258.68 5.60L258.68 5.60L258.68 5.60Q258.80 5.75 258.87 5.91L258.87 5.91L258.87 5.91Q258.36 6.09 257.76 6.76L257.76 6.76L257.76 6.76Q257.17 7.43 256.56 8.38L256.56 8.38L256.56 8.38Q255.96 9.32 255.40 10.44L255.40 10.44L255.40 10.44Q254.83 11.55 254.37 12.61L254.37 12.61L254.37 12.61Q253.92 13.68 253.60 14.60L253.60 14.60L253.60 14.60Q253.27 15.53 253.16 16.07ZM270.13 9.21L270.13 9.21L270.13 9.21Q270.59 9.21 270.85 9.46L270.85 9.46L270.85 9.46Q271.11 9.72 271.11 10.16L271.11 10.16L271.11 10.16Q271.11 10.28 271.09 10.39L271.09 10.39L271.09 10.39Q271.07 10.51 271.04 10.60L271.04 10.60L271.04 10.60Q270.86 10.57 270.63 10.55L270.63 10.55L270.63 10.55Q270.41 10.53 270.10 10.53L270.10 10.53L270.10 10.53Q269.50 10.53 268.88 10.63L268.88 10.63L268.88 10.63Q268.27 10.74 267.71 10.81L267.71 10.81L267.71 10.81Q267.39 11.55 267.12 12.24L267.12 12.24L267.12 12.24Q266.85 12.94 266.67 13.51L266.67 13.51L266.67 13.51Q266.48 14.08 266.37 14.50L266.37 14.50L266.37 14.50Q266.27 14.92 266.25 15.13L266.25 15.13L266.25 15.13Q267.39 14.90 268.54 14.73L268.54 14.73L268.54 14.73Q269.70 14.56 270.97 14.48L270.97 14.48L270.97 14.48Q271.12 14.71 271.23 14.99L271.23 14.99L271.23 14.99Q271.33 15.27 271.33 15.60L271.33 15.60L271.33 15.60Q271.33 15.68 271.33 15.78L271.33 15.78L271.33 15.78Q271.33 15.88 271.31 15.97L271.31 15.97L271.31 15.97Q270.91 15.96 270.48 15.95L270.48 15.95L270.48 15.95Q270.05 15.95 269.35 15.95L269.35 15.95L269.35 15.95Q268.88 15.95 268.47 15.97L268.47 15.97L268.47 15.97Q268.06 15.99 267.64 16.03L267.64 16.03L267.64 16.03Q267.22 16.07 266.75 16.14L266.75 16.14L266.75 16.14Q266.28 16.21 265.69 16.31L265.69 16.31L265.69 16.31Q265.05 16.06 264.45 15.08L264.45 15.08L264.45 15.08Q264.68 14.57 265.11 13.54L265.11 13.54L265.11 13.54Q265.54 12.52 266.20 10.79L266.20 10.79L266.20 10.79Q265.57 10.60 265.37 10.09L265.37 10.09L265.37 10.09Q265.44 10.02 265.78 9.92L265.78 9.92L265.78 9.92Q266.11 9.81 266.60 9.70L266.60 9.70L266.60 9.70Q266.81 9.16 266.96 8.75L266.96 8.75L266.96 8.75Q267.11 8.34 267.22 7.99L267.22 7.99L267.22 7.99Q267.33 7.63 267.42 7.29L267.42 7.29L267.42 7.29Q267.51 6.94 267.60 6.54L267.60 6.54L267.60 6.54Q267.11 6.51 266.83 6.27L266.83 6.27L266.83 6.27Q266.55 6.02 266.55 5.63L266.55 5.63L266.55 5.63Q266.55 5.52 266.58 5.36L266.58 5.36L266.58 5.36Q266.62 5.21 266.66 5.10L266.66 5.10L266.66 5.10Q266.94 5.14 267.20 5.15L267.20 5.15L267.20 5.15Q267.46 5.17 267.88 5.17L267.88 5.17L267.88 5.17Q268.76 5.17 269.53 5.12L269.53 5.12L269.53 5.12Q270.30 5.07 270.92 5.01L270.92 5.01L270.92 5.01Q271.54 4.96 271.99 4.91L271.99 4.91L271.99 4.91Q272.44 4.86 272.68 4.86L272.68 4.86L272.68 4.86Q273 4.86 273.25 5.19L273.25 5.19L273.25 5.19Q273.50 5.53 273.63 6.15L273.63 6.15L273.63 6.15Q273.20 6.10 272.92 6.09L272.92 6.09L272.92 6.09Q272.65 6.08 272.44 6.08L272.44 6.08L272.44 6.08Q271.67 6.08 271.03 6.15L271.03 6.15L271.03 6.15Q270.40 6.23 269.81 6.31L269.81 6.31L269.81 6.31Q269.72 6.44 269.62 6.64L269.62 6.64L269.62 6.64Q269.51 6.83 269.35 7.18L269.35 7.18L269.35 7.18Q269.18 7.53 268.93 8.06L268.93 8.06L268.93 8.06Q268.69 8.60 268.34 9.39L268.34 9.39L268.34 9.39Q268.87 9.31 269.34 9.26L269.34 9.26L269.34 9.26Q269.81 9.21 270.13 9.21ZM289.39 7.46L289.39 7.46L289.39 7.46Q289.39 8.13 289.09 8.73L289.09 8.73L289.09 8.73Q288.79 9.32 288.26 9.79L288.26 9.79L288.26 9.79Q287.73 10.26 287.01 10.58L287.01 10.58L287.01 10.58Q286.30 10.91 285.46 11.02L285.46 11.02L285.46 11.02Q285.67 11.65 285.97 12.31L285.97 12.31L285.97 12.31Q286.27 12.98 286.62 13.59L286.62 13.59L286.62 13.59Q286.97 14.21 287.35 14.73L287.35 14.73L287.35 14.73Q287.73 15.25 288.09 15.58L288.09 15.58L288.09 15.58Q288.02 15.72 287.89 15.86L287.89 15.86L287.89 15.86Q287.76 16.00 287.58 16.12L287.58 16.12L287.58 16.12Q287.41 16.24 287.22 16.32L287.22 16.32L287.22 16.32Q287.03 16.39 286.86 16.39L286.86 16.39L286.86 16.39Q286.55 16.39 286.27 16.10L286.27 16.10L286.27 16.10Q285.99 15.81 285.71 15.17L285.71 15.17L285.71 15.17Q285.42 14.53 285.10 13.52L285.10 13.52L285.10 13.52Q284.79 12.50 284.41 11.07L284.41 11.07L284.41 11.07Q284.26 11.07 284.10 11.07L284.10 11.07L284.10 11.07Q283.95 11.07 283.86 11.05L283.86 11.05L283.86 11.05Q283.77 10.99 283.65 10.85L283.65 10.85L283.65 10.85Q283.28 11.66 282.98 12.38L282.98 12.38L282.98 12.38Q282.69 13.09 282.46 13.76L282.46 13.76L282.46 13.76Q282.23 14.42 282.05 15.04L282.05 15.04L282.05 15.04Q281.88 15.67 281.75 16.31L281.75 16.31L281.75 16.31Q281.27 16.20 280.92 15.90L280.92 15.90L280.92 15.90Q280.57 15.61 280.27 15.08L280.27 15.08L280.27 15.08Q280.32 14.95 280.39 14.83L280.39 14.83L280.39 14.83Q280.45 14.71 280.55 14.50L280.55 14.50L280.55 14.50Q280.64 14.28 280.79 13.94L280.79 13.94L280.79 13.94Q280.94 13.61 281.18 13.05L281.18 13.05L281.18 13.05Q281.43 12.49 281.77 11.68L281.77 11.68L281.77 11.68Q282.11 10.86 282.60 9.70L282.60 9.70L282.60 9.70Q282.83 9.18 282.99 8.79L282.99 8.79L282.99 8.79Q283.15 8.40 283.28 8.04L283.28 8.04L283.28 8.04Q283.40 7.69 283.51 7.33L283.51 7.33L283.51 7.33Q283.61 6.97 283.72 6.51L283.72 6.51L283.72 6.51Q283.08 6.73 282.53 7.01L282.53 7.01L282.53 7.01Q281.97 7.28 281.61 7.59L281.61 7.59L281.61 7.59Q281.48 7.50 281.35 7.34L281.35 7.34L281.35 7.34Q281.22 7.17 281.11 6.96L281.11 6.96L281.11 6.96Q280.99 6.76 280.91 6.55L280.91 6.55L280.91 6.55Q280.83 6.34 280.81 6.17L280.81 6.17L280.81 6.17Q281.23 5.89 281.84 5.66L281.84 5.66L281.84 5.66Q282.45 5.42 283.14 5.24L283.14 5.24L283.14 5.24Q283.82 5.07 284.54 4.97L284.54 4.97L284.54 4.97Q285.25 4.87 285.87 4.87L285.87 4.87L285.87 4.87Q287.55 4.87 288.47 5.56L288.47 5.56L288.47 5.56Q289.39 6.26 289.39 7.46ZM285.81 6.02L285.98 6.29L285.98 6.29Q285.88 6.41 285.67 6.79L285.67 6.79L285.67 6.79Q285.46 7.17 285.19 7.69L285.19 7.69L285.19 7.69Q284.91 8.22 284.61 8.83L284.61 8.83L284.61 8.83Q284.31 9.45 284.03 10.05L284.03 10.05L284.03 10.05Q285.08 10.05 285.96 9.86L285.96 9.86L285.96 9.86Q286.85 9.66 287.49 9.30L287.49 9.30L287.49 9.30Q288.13 8.95 288.49 8.46L288.49 8.46L288.49 8.46Q288.85 7.98 288.85 7.39L288.85 7.39L288.85 7.39Q288.85 6.69 288.34 6.32L288.34 6.32L288.34 6.32Q287.84 5.95 286.79 5.95L286.79 5.95L286.79 5.95Q286.55 5.95 286.31 5.97L286.31 5.97L286.31 5.97Q286.08 5.99 285.81 6.02L285.81 6.02ZM302.22 9.21L302.22 9.21L302.22 9.21Q302.68 9.21 302.94 9.46L302.94 9.46L302.94 9.46Q303.20 9.72 303.20 10.16L303.20 10.16L303.20 10.16Q303.20 10.28 303.18 10.39L303.18 10.39L303.18 10.39Q303.16 10.51 303.13 10.60L303.13 10.60L303.13 10.60Q302.95 10.57 302.72 10.55L302.72 10.55L302.72 10.55Q302.50 10.53 302.19 10.53L302.19 10.53L302.19 10.53Q301.59 10.53 300.97 10.63L300.97 10.63L300.97 10.63Q300.36 10.74 299.80 10.81L299.80 10.81L299.80 10.81Q299.47 11.55 299.21 12.24L299.21 12.24L299.21 12.24Q298.94 12.94 298.75 13.51L298.75 13.51L298.75 13.51Q298.56 14.08 298.46 14.50L298.46 14.50L298.46 14.50Q298.35 14.92 298.34 15.13L298.34 15.13L298.34 15.13Q299.47 14.90 300.63 14.73L300.63 14.73L300.63 14.73Q301.78 14.56 303.06 14.48L303.06 14.48L303.06 14.48Q303.21 14.71 303.32 14.99L303.32 14.99L303.32 14.99Q303.42 15.27 303.42 15.60L303.42 15.60L303.42 15.60Q303.42 15.68 303.42 15.78L303.42 15.78L303.42 15.78Q303.42 15.88 303.39 15.97L303.39 15.97L303.39 15.97Q303.00 15.96 302.57 15.95L302.57 15.95L302.57 15.95Q302.13 15.95 301.43 15.95L301.43 15.95L301.43 15.95Q300.97 15.95 300.56 15.97L300.56 15.97L300.56 15.97Q300.15 15.99 299.73 16.03L299.73 16.03L299.73 16.03Q299.31 16.07 298.84 16.14L298.84 16.14L298.84 16.14Q298.37 16.21 297.78 16.31L297.78 16.31L297.78 16.31Q297.14 16.06 296.53 15.08L296.53 15.08L296.53 15.08Q296.77 14.57 297.20 13.54L297.20 13.54L297.20 13.54Q297.63 12.52 298.28 10.79L298.28 10.79L298.28 10.79Q297.65 10.60 297.46 10.09L297.46 10.09L297.46 10.09Q297.53 10.02 297.86 9.92L297.86 9.92L297.86 9.92Q298.20 9.81 298.69 9.70L298.69 9.70L298.69 9.70Q298.90 9.16 299.05 8.75L299.05 8.75L299.05 8.75Q299.19 8.34 299.31 7.99L299.31 7.99L299.31 7.99Q299.42 7.63 299.51 7.29L299.51 7.29L299.51 7.29Q299.60 6.94 299.68 6.54L299.68 6.54L299.68 6.54Q299.19 6.51 298.91 6.27L298.91 6.27L298.91 6.27Q298.63 6.02 298.63 5.63L298.63 5.63L298.63 5.63Q298.63 5.52 298.67 5.36L298.67 5.36L298.67 5.36Q298.70 5.21 298.75 5.10L298.75 5.10L298.75 5.10Q299.03 5.14 299.28 5.15L299.28 5.15L299.28 5.15Q299.54 5.17 299.96 5.17L299.96 5.17L299.96 5.17Q300.85 5.17 301.62 5.12L301.62 5.12L301.62 5.12Q302.39 5.07 303.01 5.01L303.01 5.01L303.01 5.01Q303.63 4.96 304.08 4.91L304.08 4.91L304.08 4.91Q304.53 4.86 304.77 4.86L304.77 4.86L304.77 4.86Q305.09 4.86 305.34 5.19L305.34 5.19L305.34 5.19Q305.59 5.53 305.72 6.15L305.72 6.15L305.72 6.15Q305.28 6.10 305.01 6.09L305.01 6.09L305.01 6.09Q304.74 6.08 304.53 6.08L304.53 6.08L304.53 6.08Q303.76 6.08 303.12 6.15L303.12 6.15L303.12 6.15Q302.48 6.23 301.90 6.31L301.90 6.31L301.90 6.31Q301.81 6.44 301.71 6.64L301.71 6.64L301.71 6.64Q301.60 6.83 301.43 7.18L301.43 7.18L301.43 7.18Q301.27 7.53 301.02 8.06L301.02 8.06L301.02 8.06Q300.78 8.60 300.43 9.39L300.43 9.39L300.43 9.39Q300.96 9.31 301.43 9.26L301.43 9.26L301.43 9.26Q301.90 9.21 302.22 9.21ZM312.90 14.45L312.90 14.45L312.90 14.45Q313.11 13.99 313.40 13.26L313.40 13.26L313.40 13.26Q313.70 12.53 314.02 11.68L314.02 11.68L314.02 11.68Q314.34 10.84 314.68 9.95L314.68 9.95L314.68 9.95Q315.01 9.06 315.31 8.26L315.31 8.26L315.31 8.26Q315.60 7.46 315.82 6.83L315.82 6.83L315.82 6.83Q316.04 6.20 316.13 5.87L316.13 5.87L316.13 5.87Q315.25 6.23 314.62 6.97L314.62 6.97L314.62 6.97Q313.99 7.71 313.67 8.83L313.67 8.83L313.67 8.83Q313.35 8.72 313.08 8.43L313.08 8.43L313.08 8.43Q312.82 8.15 312.73 7.71L312.73 7.71L312.73 7.71Q312.87 7.07 313.26 6.54L313.26 6.54L313.26 6.54Q313.64 6.01 314.23 5.63L314.23 5.63L314.23 5.63Q314.82 5.25 315.59 5.05L315.59 5.05L315.59 5.05Q316.36 4.84 317.24 4.84L317.24 4.84L317.24 4.84Q318.36 4.84 319.30 5.17L319.30 5.17L319.30 5.17Q320.24 5.50 320.91 6.09L320.91 6.09L320.91 6.09Q321.58 6.68 321.96 7.50L321.96 7.50L321.96 7.50Q322.34 8.33 322.34 9.34L322.34 9.34L322.34 9.34Q322.34 10.71 321.83 11.96L321.83 11.96L321.83 11.96Q321.33 13.20 320.47 14.15L320.47 14.15L320.47 14.15Q319.61 15.11 318.47 15.67L318.47 15.67L318.47 15.67Q317.34 16.24 316.09 16.24L316.09 16.24L316.09 16.24Q314.94 16.24 314.13 15.79L314.13 15.79L314.13 15.79Q313.31 15.33 312.90 14.45ZM317.84 5.54L317.84 5.54L317.84 5.54Q317.14 5.54 316.51 5.74L316.51 5.74L316.51 5.74Q317.13 5.96 317.53 6.21L317.53 6.21L317.53 6.21Q317.94 6.45 318.09 6.59L318.09 6.59L318.09 6.59Q317.98 6.75 317.76 7.14L317.76 7.14L317.76 7.14Q317.55 7.53 317.26 8.09L317.26 8.09L317.26 8.09Q316.97 8.65 316.65 9.32L316.65 9.32L316.65 9.32Q316.33 9.98 316.02 10.68L316.02 10.68L316.02 10.68Q315.22 12.46 314.87 13.48L314.87 13.48L314.87 13.48Q314.51 14.50 314.51 14.90L314.51 14.90L314.51 14.90Q314.71 14.97 314.99 14.99L314.99 14.99L314.99 14.99Q315.27 15.02 315.59 15.02L315.59 15.02L315.59 15.02Q316.72 15.02 317.74 14.50L317.74 14.50L317.74 14.50Q318.75 13.97 319.51 13.09L319.51 13.09L319.51 13.09Q320.28 12.21 320.72 11.04L320.72 11.04L320.72 11.04Q321.16 9.87 321.16 8.58L321.16 8.58L321.16 8.58Q321.16 7.14 320.26 6.34L320.26 6.34L320.26 6.34Q319.37 5.54 317.84 5.54ZM330.19 15.71L330.19 15.71L330.19 15.71Q329.97 15.68 329.72 15.52L329.72 15.52L329.72 15.52Q329.48 15.36 329.41 15.16L329.41 15.16L329.41 15.16Q329.41 14.99 329.45 14.73L329.45 14.73L329.45 14.73Q329.50 14.46 329.57 14.19L329.57 14.19L329.57 14.19Q329.64 13.92 329.71 13.67L329.71 13.67L329.71 13.67Q329.78 13.43 329.81 13.30L329.81 13.30L329.81 13.30Q329.98 13.30 330.24 13.38L330.24 13.38L330.24 13.38Q330.50 13.47 330.77 13.62L330.77 13.62L330.77 13.62Q331.04 13.76 331.29 13.95L331.29 13.95L331.29 13.95Q331.53 14.14 331.66 14.34L331.66 14.34L331.66 14.34Q331.53 14.62 331.34 14.87L331.34 14.87L331.34 14.87Q331.14 15.12 330.93 15.31L330.93 15.31L330.93 15.31Q330.71 15.50 330.51 15.60L330.51 15.60L330.51 15.60Q330.32 15.71 330.19 15.71Z"></path></g></svg>